<svg width="113" height="22" viewBox="0 0 113 22" fill="none" xmlns="http://www.w3.org/2000/svg" aria-label="Migrante">
  <g clip-path="url(#clip0_2139_4378)">
    <path d="M20.3571 4.72964L20.2266 4.49316L18.3384 5.51226L18.4688 5.74873C18.741 6.2442 18.6673 7.06624 18.2703 8.06844C17.0682 11.1145 13.6999 14.3463 12.2029 15.1571C10.3373 14.0986 5.73855 9.16636 5.50606 6.18227V5.91201L3.36829 6.08092V6.34555C3.51572 8.16416 4.77457 10.619 6.82728 13.102C8.60215 15.2359 10.6322 16.9475 11.8627 17.3585L12.2029 17.4711L12.5488 17.3585C13.6092 16.9644 15.1969 15.7708 16.728 14.1492C18.2082 12.6111 19.4058 10.8275 20.2663 8.87921C20.9184 7.207 20.9468 5.82193 20.3571 4.72964Z" fill="#FFC319"/>
    <path d="M20.737 5.73168C20.3457 4.41418 19.7617 3.09105 17.3347 2.64625C16.5596 2.56014 15.775 2.65418 15.0428 2.92094C14.3106 3.18771 13.6509 3.61989 13.1159 4.18334C12.7395 4.56318 12.424 4.998 12.1802 5.47269C11.9365 4.93346 11.6008 4.44012 11.1879 4.01443C10.6456 3.44617 9.97724 3.01135 9.23601 2.74452C8.49478 2.47769 7.70109 2.3862 6.91801 2.47734C4.50238 2.92214 3.91265 4.2509 3.51572 5.58529L1.32909e-05 18.2874V18.4619C-0.00616664 18.8245 0.0990502 19.1804 0.301653 19.4822C0.504256 19.7839 0.794631 20.0172 1.13411 20.151C1.37427 20.2443 1.63044 20.2902 1.88829 20.2862C4.15648 20.2862 7.60981 17.2345 8.27893 16.6208C10.0204 14.894 11.3379 12.7921 12.1292 10.4781C12.902 12.851 14.2246 15.0108 15.9908 16.7841C16.7631 17.4893 17.5794 18.1456 18.4348 18.7491C20.0395 19.8751 21.3494 20.4382 22.3304 20.4382C22.5839 20.4407 22.8357 20.3968 23.0732 20.3087C23.4118 20.1735 23.7013 19.9399 23.9037 19.6385C24.1061 19.337 24.2119 18.9818 24.2073 18.6196V18.445L20.737 5.73168ZM16.9604 4.73511C18.2703 4.97722 18.4121 5.4558 18.6616 6.31161L21.9448 18.2592C21.1453 18.0059 19.4044 17.0093 17.4594 15.2132C15.6506 13.3735 14.3956 11.0684 13.836 8.55812C13.7181 8.05212 13.7316 7.52465 13.8755 7.02529C14.0193 6.52594 14.2887 6.0711 14.6582 5.70353C14.9468 5.38419 15.3027 5.13187 15.7006 4.9645C16.0985 4.79712 16.5286 4.71881 16.9604 4.73511ZM6.8046 15.0499C4.81993 16.8629 3.05641 17.8651 2.26821 18.1016L5.5741 6.17085C5.84629 5.26999 5.98238 4.81957 7.30927 4.57183C7.39044 4.56584 7.47194 4.56584 7.5531 4.57183C8.34452 4.62148 9.08873 4.96284 9.63984 5.52899C10.0112 5.89763 10.2812 6.3546 10.4241 6.85629C10.5671 7.35798 10.5782 7.88768 10.4564 8.39484C9.87976 10.9048 8.61602 13.2079 6.8046 15.0499Z" fill="#FFC319"/>
    <path d="M29.6227 6.70585C29.685 6.65381 29.7589 6.61715 29.8382 6.59888C29.9079 6.59087 29.9783 6.59087 30.048 6.59888H31.2161C31.2984 6.59708 31.3799 6.61444 31.4543 6.64955C31.5181 6.68255 31.5757 6.72637 31.6244 6.77905C31.6757 6.83102 31.7196 6.88975 31.7548 6.95359L31.8399 7.1788L31.9986 7.84881C32.085 7.67084 32.1936 7.50438 32.3218 7.35334C32.484 7.17104 32.6756 7.0169 32.8889 6.89729C33.136 6.74651 33.4033 6.6309 33.6828 6.55383C34.0325 6.46295 34.393 6.41939 34.7545 6.42434C35.0522 6.41933 35.3494 6.45149 35.6391 6.52005C35.8933 6.57891 36.1378 6.67372 36.3649 6.80157C36.5845 6.92424 36.7851 7.07785 36.9603 7.25763C37.135 7.4508 37.2907 7.66007 37.4253 7.8826C37.5456 7.69709 37.6927 7.53015 37.8619 7.38713C38.0737 7.20132 38.308 7.04245 38.5594 6.91418C38.8424 6.76022 39.1433 6.6411 39.4553 6.55946C39.7972 6.46741 40.1501 6.42195 40.5044 6.42434C41.034 6.41315 41.5587 6.527 42.0354 6.75653C42.4655 6.97618 42.8397 7.28999 43.1298 7.67427C43.4284 8.08344 43.6494 8.54327 43.7819 9.03119C43.9275 9.57101 43.9999 10.1277 43.9974 10.6865V15.7032C44.0092 15.8604 43.9628 16.0166 43.867 16.1423C43.8161 16.1966 43.7533 16.2385 43.6835 16.2649C43.6137 16.2912 43.5387 16.3013 43.4644 16.2943H41.6895C41.5279 16.3097 41.366 16.27 41.2302 16.1817C41.1814 16.1215 41.1457 16.0519 41.1252 15.9773C41.1047 15.9027 41.0999 15.8247 41.1111 15.7482V10.6809C41.1142 10.4733 41.0776 10.2669 41.0034 10.0728C40.9402 9.8906 40.842 9.72232 40.7142 9.57733C40.5918 9.43466 40.4387 9.32113 40.2662 9.24514C40.0872 9.168 39.8943 9.12777 39.6992 9.1269C39.5037 9.12417 39.31 9.16456 39.1321 9.24514C38.9578 9.31897 38.7998 9.4261 38.6671 9.56044C38.5312 9.70247 38.4235 9.86865 38.3496 10.0503C38.2688 10.2508 38.2284 10.465 38.2305 10.6809V15.6975C38.2423 15.8548 38.196 16.011 38.1001 16.1367C38.0487 16.1903 37.9858 16.2318 37.9161 16.2581C37.8465 16.2844 37.7718 16.2948 37.6975 16.2887H35.9056C35.7441 16.3041 35.5821 16.2643 35.4463 16.1761C35.3975 16.1158 35.3618 16.0462 35.3413 15.9716C35.3208 15.8971 35.316 15.8191 35.3272 15.7426V10.6753C35.3283 10.4687 35.2958 10.2634 35.2308 10.0672C35.1693 9.8866 35.0752 9.71868 34.953 9.5717C34.8304 9.43164 34.6797 9.31851 34.5107 9.23951C34.3322 9.16064 34.1389 9.12034 33.9436 9.12127C33.7489 9.12036 33.556 9.15867 33.3766 9.23388C33.1996 9.3089 33.0381 9.4158 32.9002 9.54918C32.755 9.68858 32.636 9.85254 32.5487 10.0334C32.4512 10.2306 32.3934 10.4448 32.3786 10.664V15.7313C32.3781 15.8219 32.3608 15.9116 32.3275 15.9959C32.3019 16.0761 32.25 16.1455 32.1801 16.193C32.1213 16.2283 32.0584 16.2567 31.993 16.2775C31.9252 16.2864 31.8566 16.2864 31.7888 16.2775H30.0537C29.9671 16.2853 29.8799 16.2749 29.7978 16.2467C29.7157 16.2186 29.6405 16.1734 29.5773 16.1142C29.4751 15.9954 29.4224 15.8423 29.4299 15.6863V7.13939C29.4254 7.04779 29.4449 6.95661 29.4866 6.87476C29.5248 6.79505 29.586 6.72841 29.6624 6.68333L29.6227 6.70585Z" fill="white"/>
    <path d="M46.2372 3.28806C46.2266 3.20727 46.2338 3.12516 46.2582 3.04739C46.2827 2.96962 46.3239 2.89806 46.3789 2.83763C46.4376 2.78698 46.5061 2.74884 46.5803 2.7256C46.6544 2.70235 46.7326 2.69449 46.8099 2.70251H48.5961C48.7532 2.69424 48.9081 2.74218 49.0327 2.83763C49.0939 2.89458 49.1406 2.96505 49.1692 3.04331C49.1978 3.12158 49.2074 3.20543 49.1972 3.28806V4.78574C49.1959 4.85326 49.1825 4.92001 49.1575 4.9828C49.1277 5.05741 49.0877 5.12753 49.0384 5.19112C48.9872 5.25698 48.9236 5.31242 48.8513 5.3544C48.774 5.39953 48.6858 5.42289 48.5961 5.42197H46.8099C46.43 5.42197 46.2428 5.20801 46.2428 4.78574L46.2372 3.28806ZM46.2372 7.16738C46.2327 7.01441 46.2829 6.8648 46.3789 6.7451C46.4314 6.6838 46.4979 6.63594 46.5729 6.60556C46.648 6.57518 46.7292 6.56317 46.8099 6.57056H48.5734C48.6433 6.57109 48.7125 6.58445 48.7776 6.60997C48.8504 6.63955 48.9176 6.68146 48.976 6.73384C49.0391 6.78645 49.0928 6.84927 49.1348 6.91964C49.1792 6.99452 49.2009 7.08055 49.1972 7.16738V15.703C49.2039 15.7832 49.1931 15.8639 49.1658 15.9397C49.1384 16.0154 49.0949 16.0845 49.0384 16.1422C48.9095 16.2514 48.7425 16.306 48.5734 16.2942H46.8099C46.43 16.2942 46.2428 16.0971 46.2428 15.703L46.2372 7.16738Z" fill="white"/>
    <path d="M58.5308 15.9621C58.5719 15.8539 58.5949 15.7398 58.5988 15.6243C58.5988 15.506 58.5988 15.3765 58.5988 15.2414V15.0838C58.5957 15.0651 58.5957 15.0461 58.5988 15.0275V14.9205C58.4514 15.0781 58.2983 15.2358 58.1452 15.3878C57.9875 15.5416 57.8146 15.6793 57.6292 15.7988C57.4305 15.9221 57.2171 16.0204 56.9941 16.0916C56.7251 16.1683 56.446 16.2043 56.1662 16.1986C55.5071 16.2035 54.8531 16.0851 54.2382 15.8495C53.6745 15.6141 53.1637 15.2696 52.7355 14.836C52.2948 14.4067 51.9491 13.8909 51.7205 13.3215C51.4767 12.7048 51.3554 12.0471 51.3633 11.3846C51.3586 10.7133 51.4797 10.0469 51.7205 9.41963C51.9548 8.83651 52.2994 8.30329 52.7355 7.84876C53.1694 7.39634 53.6899 7.03455 54.2666 6.78462C54.87 6.52568 55.5202 6.39157 56.1775 6.39049C56.4722 6.38611 56.766 6.42211 57.0508 6.49747C57.3029 6.5626 57.5452 6.66107 57.7709 6.79025C57.9884 6.91209 58.1902 7.05954 58.372 7.22942C58.5494 7.40714 58.716 7.59515 58.871 7.79245L59.0865 7.11118C59.1205 7.02485 59.1489 6.94602 59.1715 6.8747C59.1974 6.81046 59.2318 6.74988 59.2736 6.69453C59.3157 6.64517 59.3706 6.60817 59.4324 6.58756C59.512 6.55766 59.5969 6.54425 59.6819 6.54814H60.816C60.8896 6.54806 60.9627 6.56142 61.0315 6.58756C61.1022 6.61032 61.1677 6.64667 61.2243 6.69453C61.2864 6.74055 61.3369 6.80031 61.3717 6.86907C61.4066 6.94502 61.424 7.02772 61.4227 7.11118V14.8923C61.4361 15.6205 61.3031 16.3441 61.0315 17.0206C60.7865 17.6147 60.4196 18.1516 59.9541 18.5971C59.4913 19.0349 58.9406 19.3707 58.338 19.5824C57.693 19.8065 57.014 19.9189 56.3306 19.9146C56.0324 19.9138 55.7347 19.8893 55.4404 19.8414C55.1176 19.7955 54.799 19.724 54.4877 19.6275C54.1724 19.527 53.8653 19.4028 53.5691 19.2559C53.288 19.1131 53.0253 18.9373 52.7866 18.7322C52.7063 18.6752 52.6388 18.6023 52.5881 18.5183C52.5331 18.4348 52.5053 18.3365 52.5087 18.2368C52.5151 18.0908 52.5644 17.9499 52.6505 17.8314L53.3876 16.8292C53.4448 16.7632 53.5117 16.7062 53.5861 16.6603C53.645 16.6214 53.7139 16.5999 53.7846 16.5983C53.942 16.6161 54.0903 16.6809 54.2099 16.7841C54.3392 16.9063 54.4888 17.0054 54.6522 17.0769C54.8197 17.1537 54.9945 17.214 55.1738 17.2571C55.3458 17.2957 55.5201 17.3239 55.6955 17.3415H56.1605C56.4052 17.3411 56.649 17.3108 56.8863 17.2514C57.1343 17.1925 57.3729 17.0996 57.5951 16.9756C57.8049 16.8577 57.996 16.7097 58.1622 16.5364C58.3305 16.3778 58.4571 16.1806 58.5308 15.9621ZM54.1191 11.4128C54.1159 11.7385 54.1696 12.0624 54.2779 12.3699C54.3771 12.6506 54.5313 12.9089 54.7315 13.13C54.9282 13.3453 55.1676 13.5178 55.4347 13.6368C55.7232 13.7588 56.034 13.8202 56.3476 13.8169C56.6656 13.8192 56.9811 13.7619 57.2776 13.648C57.8447 13.4275 58.3039 12.9978 58.5591 12.4488C58.6908 12.1675 58.766 11.8634 58.7803 11.5535V11.3002C58.7647 10.9941 58.6896 10.6939 58.5591 10.4162C58.4311 10.1413 58.2544 9.89147 58.0374 9.67862C57.8159 9.46693 57.5588 9.29542 57.2776 9.17189C56.9837 9.04731 56.6672 8.98406 56.3476 8.98609C56.0323 8.98319 55.7203 9.05053 55.4347 9.18315C55.1667 9.30815 54.9274 9.48636 54.7315 9.70677C54.5319 9.93262 54.3779 10.1945 54.2779 10.4781C54.1713 10.7764 54.1176 11.0907 54.1191 11.4071V11.4128Z" fill="white"/>
    <path d="M63.6739 7.13367C63.6739 7.04611 63.6932 6.95961 63.7306 6.88031C63.7656 6.81328 63.8138 6.75392 63.8724 6.70577C63.9337 6.65992 64.0028 6.62557 64.0765 6.60442C64.1463 6.58269 64.2189 6.57131 64.292 6.57064H65.4601C65.5162 6.56748 65.5724 6.57585 65.6251 6.59522C65.6778 6.6146 65.7259 6.64457 65.7663 6.68325C65.8491 6.76871 65.9162 6.86777 65.9648 6.97603C66.0207 7.10227 66.068 7.23205 66.1066 7.36452C66.1463 7.50467 66.1956 7.64199 66.254 7.77554L66.7133 7.28006C66.8592 7.11806 67.0228 6.97266 67.201 6.84653C67.3765 6.71904 67.5669 6.61317 67.768 6.53123C67.9973 6.44076 68.2415 6.39304 68.4882 6.39047C68.7372 6.38886 68.9858 6.40959 69.231 6.4524C69.6621 6.53209 70.0728 6.69674 70.4388 6.93661C70.6316 7.06048 70.8414 7.20124 71.0626 7.36452C71.1531 7.40412 71.2315 7.46652 71.2902 7.54554C71.3489 7.62455 71.3858 7.71742 71.3971 7.81495C71.3874 7.95505 71.3425 8.09051 71.2667 8.20907L70.5636 9.39708C70.5104 9.48641 70.435 9.56073 70.3447 9.61296C70.2544 9.6652 70.1521 9.69361 70.0476 9.69549C69.9276 9.69172 69.8097 9.66295 69.7017 9.61103C69.5063 9.41399 69.278 9.25207 69.0269 9.13245C68.7808 9.02358 68.5137 8.96976 68.2443 8.9748C68.0648 8.97071 67.8861 8.99933 67.717 9.05926C67.5667 9.11456 67.4268 9.1945 67.303 9.29573C67.1737 9.40386 67.0576 9.5267 66.9571 9.66171C66.8437 9.80809 66.736 9.96574 66.6283 10.1347V15.6806C66.6351 15.7594 66.6262 15.8389 66.6018 15.9143C66.5775 15.9897 66.5383 16.0595 66.4865 16.1197C66.4228 16.1759 66.3482 16.2184 66.2672 16.2446C66.1862 16.2707 66.1006 16.28 66.0158 16.2717H64.2807C64.1992 16.2837 64.116 16.2768 64.0377 16.2515C63.9594 16.2262 63.888 16.1832 63.8292 16.126C63.7705 16.0687 63.7258 15.9986 63.6989 15.9214C63.6719 15.8441 63.6634 15.7617 63.6739 15.6806V7.13367Z" fill="white"/>
    <path d="M82.7891 15.7255C82.7888 15.812 82.7734 15.8977 82.7437 15.9789C82.7124 16.0546 82.6591 16.1193 82.5906 16.1647C82.5347 16.2196 82.4637 16.2569 82.3865 16.2717C82.3205 16.2791 82.254 16.2791 82.188 16.2717H80.6683C80.5796 16.276 80.4909 16.2626 80.4075 16.2323C80.3417 16.2076 80.2846 16.1646 80.243 16.1084C80.2 16.0517 80.1657 15.9891 80.141 15.9226L80.0502 15.6805L79.9482 15.337C79.8029 15.4849 79.6455 15.6205 79.4775 15.7424C79.3007 15.8789 79.1108 15.9977 78.9105 16.0971C78.6919 16.2066 78.4618 16.2916 78.2243 16.3505C77.9767 16.4169 77.721 16.4491 77.4645 16.4462C77.0106 16.4486 76.5586 16.3899 76.1206 16.2717C75.7 16.1561 75.2961 15.9877 74.9184 15.7706C74.1738 15.3351 73.5547 14.7166 73.1209 13.9745C72.8998 13.5967 72.7301 13.1916 72.6162 12.7696C72.4972 12.329 72.438 11.8745 72.4404 11.4183C72.4265 10.4299 72.7107 9.46002 73.2563 8.63326C73.802 7.80651 74.5842 7.16071 75.5025 6.7789C76.1158 6.52056 76.7756 6.3884 77.4418 6.3904C77.7419 6.38955 78.0409 6.42548 78.3321 6.49738C78.5961 6.565 78.8511 6.66327 79.0919 6.79016C79.3155 6.91044 79.5232 7.05797 79.71 7.22933C79.891 7.40044 80.0544 7.58906 80.1977 7.79236L80.4188 7.0942C80.4699 6.9647 80.5152 6.86335 80.5492 6.78453C80.5741 6.7203 80.6106 6.66114 80.657 6.60999C80.695 6.56999 80.7445 6.54249 80.7987 6.53116C80.878 6.52382 80.9577 6.52382 81.0369 6.53116H82.171C82.2369 6.52377 82.3035 6.52377 82.3695 6.53116C82.4467 6.54596 82.5177 6.58319 82.5736 6.63814C82.6381 6.69005 82.6904 6.7554 82.7267 6.82957C82.7569 6.90676 82.7723 6.98887 82.7721 7.07168L82.7891 15.7255ZM75.1906 11.4577C75.188 11.7798 75.2417 12.0998 75.3494 12.4036C75.4486 12.6842 75.6028 12.9426 75.803 13.1637C76.0079 13.3863 76.2577 13.5636 76.5361 13.6839C76.8146 13.8042 77.1155 13.8648 77.4191 13.8619C77.7504 13.8653 78.0787 13.8001 78.3831 13.6705C78.67 13.5512 78.9316 13.3793 79.1543 13.1637C79.3725 12.9457 79.5459 12.6875 79.6646 12.4036C79.7897 12.1038 79.8533 11.7822 79.8518 11.4577C79.8533 11.1369 79.7896 10.819 79.6646 10.5231C79.4267 9.93489 78.9669 9.46216 78.3831 9.20558C78.0787 9.0759 77.7504 9.0107 77.4191 9.01415C77.1042 9.00949 76.7923 9.0749 76.5062 9.20558C76.2376 9.33457 75.9984 9.51657 75.803 9.74046C75.6032 9.97039 75.4492 10.236 75.3494 10.5231C75.2417 10.823 75.1879 11.1393 75.1906 11.4577Z" fill="white"/>
    <path d="M85.2274 6.70583C85.2876 6.65386 85.3596 6.61715 85.4372 6.59886C85.5088 6.59081 85.5811 6.59081 85.6527 6.59886H86.7868C86.869 6.59706 86.9506 6.61442 87.0249 6.64953C87.0906 6.67963 87.1487 6.72387 87.195 6.77903C87.2461 6.83118 87.29 6.88988 87.3255 6.95357C87.3255 7.02676 87.3822 7.09996 87.4048 7.17878L87.5693 7.8488C87.6628 7.66416 87.7897 7.49813 87.9435 7.35896C88.1334 7.17655 88.3493 7.02289 88.5843 6.9029C88.8617 6.75245 89.157 6.63707 89.4632 6.55945C89.8343 6.46903 90.2153 6.42552 90.5973 6.42995C91.1395 6.42088 91.6766 6.53448 92.168 6.76214C92.6208 6.98132 93.0211 7.29425 93.3418 7.67989C93.6722 8.08063 93.9207 8.54155 94.0733 9.0368C94.2442 9.57198 94.3284 10.1307 94.3228 10.6921V15.7088C94.3363 15.8653 94.292 16.0214 94.1981 16.1479C94.1467 16.2015 94.0838 16.243 94.0142 16.2693C93.9445 16.2956 93.8698 16.3061 93.7955 16.3H92.0093C91.8495 16.3154 91.6893 16.2756 91.5556 16.1873C91.5059 16.1275 91.4691 16.0581 91.4476 15.9835C91.4262 15.9089 91.4205 15.8307 91.4309 15.7538V10.7653C91.4335 10.5482 91.3829 10.3337 91.2834 10.1403C91.1843 9.94492 91.0498 9.76932 90.8865 9.62236C90.72 9.47052 90.5281 9.34859 90.3195 9.26201C90.1181 9.17882 89.9025 9.13486 89.6844 9.13252C89.489 9.13637 89.2963 9.17847 89.1173 9.25638C88.9223 9.34187 88.7424 9.45782 88.5843 9.59984C88.4213 9.74771 88.2835 9.92072 88.176 10.1122C88.0655 10.3073 88.0015 10.5249 87.9889 10.7484V15.7257C87.9884 15.8162 87.9711 15.9059 87.9379 15.9903C87.9082 16.0699 87.8548 16.1387 87.7848 16.1873C87.7265 16.2237 87.6635 16.2521 87.5976 16.2718C87.5299 16.2814 87.4612 16.2814 87.3935 16.2718H85.6527C85.5707 16.2809 85.4877 16.2722 85.4094 16.2462C85.3312 16.2202 85.2596 16.1776 85.1997 16.1213C85.1398 16.065 85.0929 15.9964 85.0625 15.9203C85.032 15.8442 85.0186 15.7624 85.0232 15.6806V7.13937C85.0222 7.04677 85.0457 6.95552 85.0913 6.87474C85.1315 6.79463 85.1946 6.72806 85.2727 6.68331L85.2274 6.70583Z" fill="white"/>
    <path d="M97.1525 5.05036C97.1487 4.98433 97.1606 4.91834 97.1872 4.85771C97.2138 4.79708 97.2544 4.74349 97.3056 4.70127C97.4465 4.60714 97.5989 4.53144 97.7593 4.47606L99.5115 3.86798H99.6475C99.7206 3.85924 99.7947 3.86973 99.8624 3.89839C99.93 3.92705 99.9889 3.97287 100.033 4.03126C100.102 4.16528 100.135 4.3145 100.13 4.4648V6.57055H101.19C101.336 6.56663 101.479 6.61909 101.587 6.71694C101.643 6.77462 101.687 6.84367 101.714 6.91943C101.742 6.99518 101.752 7.07589 101.746 7.15611V8.64252C101.752 8.72786 101.741 8.8136 101.714 8.89478C101.687 8.97596 101.643 9.05097 101.587 9.11547C101.479 9.21333 101.336 9.26579 101.19 9.26186H100.13V15.7255C100.135 15.8066 100.122 15.8878 100.093 15.9636C100.064 16.0394 100.018 16.108 99.9594 16.1647C99.8273 16.2722 99.6593 16.3265 99.4888 16.3167H97.7423C97.6634 16.3244 97.5838 16.3141 97.5095 16.2867C97.4352 16.2593 97.3682 16.2154 97.3135 16.1584C97.2589 16.1014 97.218 16.0328 97.194 15.9578C97.1701 15.8828 97.1636 15.8034 97.1752 15.7255V9.26186H96.3814C95.9844 9.26186 95.8143 9.05917 95.8143 8.64252V7.14485C95.8083 7.0694 95.8189 6.99356 95.8453 6.92256C95.8717 6.85156 95.9132 6.78708 95.9671 6.73357C96.021 6.68006 96.086 6.63878 96.1575 6.61258C96.229 6.58638 96.3054 6.57588 96.3814 6.58181H97.1752L97.1525 5.05036Z" fill="white"/>
    <path d="M111.482 15.1287C111.036 15.5392 110.519 15.8672 109.956 16.0971C109.387 16.332 108.776 16.4507 108.159 16.4462C107.473 16.452 106.792 16.3219 106.157 16.0633C105.545 15.8165 104.985 15.4574 104.507 15.0048C104.029 14.5494 103.644 14.0064 103.373 13.4058C103.091 12.777 102.948 12.0954 102.953 11.407C102.953 10.9665 103.008 10.5277 103.118 10.1008C103.228 9.68978 103.386 9.29295 103.589 8.91842C103.796 8.55172 104.047 8.2114 104.337 7.90496C104.625 7.59804 104.953 7.33101 105.312 7.11108C105.679 6.88848 106.073 6.71613 106.486 6.59872C106.92 6.4651 107.37 6.39492 107.824 6.39039C108.244 6.38937 108.662 6.44622 109.066 6.55931C109.464 6.66804 109.845 6.82899 110.2 7.03789C110.544 7.24951 110.861 7.50296 111.142 7.79235C111.431 8.07419 111.684 8.38994 111.896 8.73262C112.106 9.07271 112.272 9.43783 112.389 9.81928C112.503 10.2052 112.56 10.6052 112.559 11.0073C112.559 11.2775 112.559 11.4915 112.559 11.6604C112.562 11.8027 112.521 11.9424 112.44 12.0602C112.352 12.1719 112.224 12.2463 112.083 12.2685C111.84 12.3132 111.593 12.3321 111.346 12.3248H105.794C105.832 12.6194 105.939 12.901 106.106 13.1468C106.256 13.3592 106.449 13.5376 106.673 13.6704C106.874 13.7986 107.094 13.8937 107.325 13.952C107.54 14.0059 107.761 14.0343 107.983 14.0364C108.173 14.0334 108.363 14.0146 108.55 13.9801C108.743 13.9414 108.932 13.8887 109.117 13.8225C109.29 13.7641 109.457 13.6906 109.616 13.6029C109.75 13.5303 109.874 13.4414 109.985 13.3383C110.05 13.2819 110.121 13.2311 110.195 13.1862C110.253 13.1568 110.317 13.1414 110.382 13.1412C110.455 13.143 110.526 13.1666 110.586 13.2088C110.671 13.2667 110.751 13.3327 110.824 13.4058L111.641 14.3236C111.688 14.3764 111.724 14.4375 111.748 14.5037C111.757 14.5597 111.757 14.6167 111.748 14.6726C111.75 14.7677 111.72 14.8605 111.663 14.9373C111.611 15.0083 111.55 15.0726 111.482 15.1287ZM107.773 8.74951C107.578 8.7513 107.386 8.79148 107.206 8.86775C107.016 8.94871 106.838 9.05682 106.679 9.18868C106.513 9.32162 106.363 9.47272 106.231 9.63911C106.108 9.79862 106.001 9.97031 105.913 10.1515H109.854C109.75 9.95605 109.633 9.76794 109.503 9.58844C109.38 9.42155 109.235 9.27193 109.072 9.14364C108.9 9.0147 108.709 8.91395 108.505 8.84523C108.268 8.77496 108.021 8.74265 107.773 8.74951Z" fill="white"/>
  </g>
  <defs>
    <clipPath id="clip0_2139_4378">
    <rect width="112.412" height="25.9053" fill="white" transform="translate(0 0.0732422)"/>
    </clipPath>
  </defs>
</svg>