<svg width="114" height="86" viewBox="0 0 114 86" fill="none" xmlns="http://www.w3.org/2000/svg">
  <g clip-path="url(#clip0_1627_2890)">
    <path
      d="M95.8082 10.9469L95.2063 9.81134L86.3034 14.6375L86.9053 15.7731C88.1771 18.1237 87.8592 22.0301 85.9855 26.7881C80.3076 41.2212 64.4777 56.5287 57.4258 60.3897C48.6252 55.3705 26.9925 32.0004 25.8797 17.8398L25.7888 16.568L15.7163 17.3515L15.898 18.6007C16.568 27.231 22.4957 38.8593 32.148 50.5102C40.4718 60.6282 49.9651 68.7361 55.8133 70.6893L57.4258 71.223L59.0497 70.6893C64.1825 68.9632 71.541 63.2627 78.7519 55.45C86.3261 47.2398 92.3787 38.1325 95.4221 30.4674C98.4654 22.8023 98.6017 16.1024 95.8082 10.9469Z"
      fill="url(#paint0_linear_1627_2890)" />
    <path
      d="M97.6591 15.6936C95.8081 9.44796 93.0487 3.20232 81.7611 1.06745C75.3565 -0.0681234 67.3734 2.80487 61.9 8.35782C60.1241 10.1524 58.6343 12.2091 57.4826 14.4558C56.2989 11.9315 54.6937 9.62741 52.7359 7.64241C47.1376 2.03268 39.0637 -0.931158 32.5682 0.261192C21.2125 2.362 18.4076 8.67577 16.5226 15.0236L0 75.1975V76.0833C0.31796 81.2842 3.40671 83.3055 5.28041 84.0323C6.41412 84.4678 7.62035 84.6836 8.83474 84.6682C19.5091 84.6682 35.7591 70.201 38.9274 67.294C47.1294 59.1003 53.3448 49.1362 57.0965 38.1666C60.7319 49.4132 66.955 59.6502 75.2657 68.0548V68.0548C78.9038 71.3971 82.7456 74.5108 86.769 77.3778C94.3319 82.715 100.509 85.4177 105.108 85.4177C106.307 85.4302 107.497 85.2183 108.617 84.7931C110.457 84.0436 113.591 82.0337 113.898 76.8441V76.0152L97.6591 15.6936ZM79.8307 10.9583C86.0082 12.0938 86.6441 14.365 87.8819 18.4303L103.337 75.0726C99.5782 73.9371 91.3908 69.1563 82.2154 60.6395C82.011 60.4465 68.9519 47.9438 65.1818 29.0933C64.6124 26.6802 64.6693 24.1616 65.3471 21.7767C66.0248 19.3917 67.3008 17.2196 69.0541 15.4665C72.5062 11.8667 77.2188 10.47 79.8307 10.9583ZM32.1367 59.8446C22.7114 68.4522 14.4672 73.1762 10.7084 74.3345L26.2317 17.7717C27.5035 13.4906 28.1508 11.3557 34.4078 10.2202C34.7822 10.15 35.1625 10.1158 35.5434 10.118C39.303 10.3704 42.8299 12.0284 45.4228 14.7624C47.1765 16.5146 48.4506 18.6881 49.1227 21.0743C49.7948 23.4605 49.8424 25.9794 49.2611 28.3893C45.5137 47.0581 32.2275 59.7311 32.114 59.8446H32.1367Z"
      fill="#733FE7" />
  </g>
  <defs>
    <linearGradient id="paint0_linear_1627_2890" x1="15.739" y1="40.5285" x2="97.8068" y2="40.5285"
      gradientUnits="userSpaceOnUse">
      <stop stop-color="#733FE7" />
      <stop offset="0.17" stop-color="#733FE7" stop-opacity="0.72" />
      <stop offset="0.33" stop-color="#733FE7" stop-opacity="0.49" />
      <stop offset="0.45" stop-color="#733FE7" stop-opacity="0.35" />
      <stop offset="0.51" stop-color="#733FE7" stop-opacity="0.3" />
      <stop offset="1" stop-color="#733FE7" />
    </linearGradient>
    <clipPath id="clip0_1627_2890">
      <rect width="114" height="85.4063" fill="white" />
    </clipPath>
  </defs>
</svg>